<?xml version="1.0" encoding="UTF-8" standalone="no"?>
<svg
   xmlns:dc="http://purl.org/dc/elements/1.1/"
   xmlns:cc="http://creativecommons.org/ns#"
   xmlns:rdf="http://www.w3.org/1999/02/22-rdf-syntax-ns#"
   xmlns:svg="http://www.w3.org/2000/svg"
   xmlns="http://www.w3.org/2000/svg"
   viewBox="0 0 420 100"
   height="100"
   width="420"
   xml:space="preserve"
   id="svg2"
   version="1.1"><metadata
     id="metadata8"><rdf:RDF><cc:Work
         rdf:about=""><dc:format>image/svg+xml</dc:format><dc:type
           rdf:resource="http://purl.org/dc/dcmitype/StillImage" /></cc:Work></rdf:RDF></metadata><defs
     id="defs6"><clipPath
       id="clipPath20"
       clipPathUnits="userSpaceOnUse"><path
         id="path18"
         d="m 159.648,1.87891 c 24.961,0 44.731,12.96089 44.731,29.80079 0,16.8711 -19.77,30.1601 -44.731,30.1601 -18.789,0 -34.687,9.0586 -34.687,20.0704 0,11.0586 15.898,20.1208 34.687,20.1208 10.704,0 20.743,-2.9294 27.543,-7.7693 l 0.348,-0.3515 c 1.602,-1.2891 3.199,-2.8907 4.18,-4.1797 1.64,-2.2696 4.883,-2.6211 6.832,-1.3321 2.269,1.6407 2.898,4.8829 1.289,7.1524 -6.789,9.0582 -20.11,15.2302 -35,16.2112 -0.352,0 -0.66,0 -0.969,0 -1.293,0.308 -2.621,0.308 -4.223,0.308 -24.957,0 -44.418,-13.2809 -44.418,-30.1598 0,-16.8321 19.461,-30.1094 44.418,-30.1094 18.793,0 35,-9.0703 35,-20.1211 0,-11.0195 -16.207,-20.0781 -35,-20.0781 -10.699,0 -20.738,2.9297 -27.226,7.7773 -0.313,0 -0.313,0.3516 -0.313,0.3516 -1.949,1.289 -3.238,2.8906 -4.531,4.1797 -1.637,2.2617 -4.566,2.9296 -6.84,1.3203 -2.258,-1.6407 -2.578,-4.8789 -0.937,-6.8321 6.449,-9.37887 19.769,-15.54684 35,-16.51949 0.32,0 0.629,0 0.937,0 1.332,0 2.621,0 3.91,0 z" /></clipPath><linearGradient
       id="linearGradient26"
       spreadMethod="pad"
       gradientTransform="matrix(7.5,0,0,-7.5,-487.5,2138.44)"
       gradientUnits="userSpaceOnUse"
       y2="235"
       x2="485"
       y1="235"
       x1="65"><stop
         id="stop22"
         offset="0"
         style="stop-opacity:1;stop-color:#7b4397" /><stop
         id="stop24"
         offset="1"
         style="stop-opacity:1;stop-color:#dc2430" /></linearGradient><clipPath
       id="clipPath36"
       clipPathUnits="userSpaceOnUse"><path
         id="path34"
         d="m 743.441,1.87891 c 2.61,0 4.879,1.94922 4.879,4.88281 0,2.57812 -2.269,4.83988 -4.879,4.83988 h -78.75 c -2.929,0 -4.851,-2.26176 -4.851,-4.83988 0,-2.93359 1.922,-4.88281 4.851,-4.88281 z m 0.661,49.92189 c 2.578,0 4.847,2.2578 4.847,5.1875 0,2.582 -2.269,4.8515 -4.847,4.8515 h -79.411 c -2.929,0 -4.851,-2.2695 -4.851,-4.8515 0,-2.9297 1.922,-5.1875 4.851,-5.1875 z m -0.661,50.2302 c 2.61,0 4.879,2.27 4.879,5.199 0,2.571 -2.269,4.84 -4.879,4.84 h -78.75 c -2.929,0 -4.851,-2.269 -4.851,-4.84 0,-2.929 1.922,-5.199 4.851,-5.199 z" /></clipPath><linearGradient
       id="linearGradient42"
       spreadMethod="pad"
       gradientTransform="matrix(7.5,0,0,-7.5,-487.5,2138.44)"
       gradientUnits="userSpaceOnUse"
       y2="235"
       x2="485"
       y1="235"
       x1="65"><stop
         id="stop38"
         offset="0"
         style="stop-opacity:1;stop-color:#7b4397" /><stop
         id="stop40"
         offset="1"
         style="stop-opacity:1;stop-color:#dc2430" /></linearGradient><clipPath
       id="clipPath52"
       clipPathUnits="userSpaceOnUse"><path
         id="path50"
         d="m 1261.99,1.87891 c 16.53,0 30.16,13.28129 30.16,29.80079 0,10.6992 -5.51,19.8008 -13.63,25.3086 8.12,5.1601 13.63,14.5703 13.63,24.9219 0,16.5703 -13.63,30.1598 -30.16,30.1598 h -53.47 c -2.58,0 -4.85,-2.269 -4.85,-4.84 0,-2.929 2.27,-5.199 4.85,-5.199 h 53.47 c 11.02,0 20.12,-9.0622 20.12,-20.1208 0,-11.0118 -9.1,-20.0704 -20.12,-20.0704 h -26.87 c -2.62,0 -4.89,-2.2695 -4.89,-4.8515 0,-2.9297 2.27,-5.1875 4.89,-5.1875 h 26.87 c 11.02,0 20.12,-8.75 20.12,-20.1211 0,-11.0195 -9.1,-20.0781 -20.12,-20.0781 h -53.47 c -2.58,0 -4.85,-2.26176 -4.85,-4.83988 0,-2.93359 2.27,-4.88281 4.85,-4.88281 z" /></clipPath><linearGradient
       id="linearGradient58"
       spreadMethod="pad"
       gradientTransform="matrix(7.5,0,0,-7.5,-487.5,2138.44)"
       gradientUnits="userSpaceOnUse"
       y2="235"
       x2="485"
       y1="235"
       x1="65"><stop
         id="stop54"
         offset="0"
         style="stop-opacity:1;stop-color:#7b4397" /><stop
         id="stop56"
         offset="1"
         style="stop-opacity:1;stop-color:#dc2430" /></linearGradient><clipPath
       id="clipPath68"
       clipPathUnits="userSpaceOnUse"><path
         id="path66"
         d="m 1824.84,1.87891 c 30.16,0 54.77,24.64059 54.77,55.10939 0,30.1211 -24.61,55.0817 -54.77,55.0817 -30.15,0 -54.76,-24.9606 -54.76,-55.0817 0,-30.4688 24.61,-55.10939 54.76,-55.10939 z m 0,100.15209 c 24.96,0 45.04,-20.1208 45.04,-45.0427 0,-24.957 -20.08,-45.3867 -45.04,-45.3867 -24.64,0 -44.72,20.4297 -44.72,45.3867 0,24.9219 20.08,45.0427 44.72,45.0427 z" /></clipPath><linearGradient
       id="linearGradient74"
       spreadMethod="pad"
       gradientTransform="matrix(7.5,0,0,-7.5,-487.5,2138.44)"
       gradientUnits="userSpaceOnUse"
       y2="235"
       x2="485"
       y1="235"
       x1="65"><stop
         id="stop70"
         offset="0"
         style="stop-opacity:1;stop-color:#7b4397" /><stop
         id="stop72"
         offset="1"
         style="stop-opacity:1;stop-color:#dc2430" /></linearGradient><clipPath
       id="clipPath84"
       clipPathUnits="userSpaceOnUse"><path
         id="path82"
         d="m 2441.17,1.87891 c 2.58,0 4.85,1.94922 4.85,4.88281 0,2.57812 -2.27,4.83988 -4.85,4.83988 h -73.9 V 107.23 c 0,2.571 -2.27,4.84 -4.89,4.84 -2.89,0 -4.84,-2.269 -4.84,-4.84 V 6.76172 c 0,-2.93359 1.95,-4.88281 4.84,-4.88281 z" /></clipPath><linearGradient
       id="linearGradient90"
       spreadMethod="pad"
       gradientTransform="matrix(7.5,0,0,-7.5,-487.5,2138.44)"
       gradientUnits="userSpaceOnUse"
       y2="235"
       x2="485"
       y1="235"
       x1="65"><stop
         id="stop86"
         offset="0"
         style="stop-opacity:1;stop-color:#7b4397" /><stop
         id="stop88"
         offset="1"
         style="stop-opacity:1;stop-color:#dc2430" /></linearGradient><clipPath
       id="clipPath100"
       clipPathUnits="userSpaceOnUse"><path
         id="path98"
         d="m 2978.71,1.87891 c 30.16,0 54.77,24.29299 54.77,54.44919 v 0.9727 c 0,30.1601 -24.61,54.7692 -54.77,54.7692 h -49.92 c -2.58,0 -4.84,-2.269 -4.84,-4.84 0,-2.929 2.26,-5.199 4.84,-5.199 h 49.92 c 24.96,0 45.04,-20.1208 45.04,-44.7302 v -0.9727 c 0,-24.6484 -20.08,-44.7265 -45.04,-44.7265 h -49.92 c -2.58,0 -4.84,-2.26176 -4.84,-4.83988 0,-2.93359 2.26,-4.88281 4.84,-4.88281 z" /></clipPath><linearGradient
       id="linearGradient106"
       spreadMethod="pad"
       gradientTransform="matrix(7.5,0,0,-7.5,-487.5,2138.44)"
       gradientUnits="userSpaceOnUse"
       y2="235"
       x2="485"
       y1="235"
       x1="65"><stop
         id="stop102"
         offset="0"
         style="stop-opacity:1;stop-color:#7b4397" /><stop
         id="stop104"
         offset="1"
         style="stop-opacity:1;stop-color:#dc2430" /></linearGradient><clipPath
       id="clipPath116"
       clipPathUnits="userSpaceOnUse"><path
         id="path114"
         d="M 532.969,506.719 H 268.199 V 411.09 h 140 c -22.847,-60.309 -80.39,-92.18 -142.769,-92.18 -86.602,0 -155.231,72.77 -155.231,163.551 0,91.488 68.629,164.961 155.231,164.961 61.019,0 114.371,-34.652 141.41,-85.231 l 85.93,62.379 C 446.328,700.121 361.09,750 264.77,750 117.809,750 0,630.121 0,482.461 0,334.84 117.809,215.621 265.43,215.621 c 148.32,0 267.539,122.699 267.539,275.16 z" /></clipPath><linearGradient
       id="linearGradient122"
       spreadMethod="pad"
       gradientTransform="matrix(7.5,0,0,-7.5,-487.5,2138.44)"
       gradientUnits="userSpaceOnUse"
       y2="235"
       x2="485"
       y1="235"
       x1="65"><stop
         id="stop118"
         offset="0"
         style="stop-opacity:1;stop-color:#7b4397" /><stop
         id="stop120"
         offset="1"
         style="stop-opacity:1;stop-color:#dc2430" /></linearGradient><clipPath
       id="clipPath132"
       clipPathUnits="userSpaceOnUse"><path
         id="path130"
         d="m 826.84,215.621 c 137.93,0 221.79,88.758 221.79,239.149 V 740.98 H 941.172 V 445.738 c 0,-77.617 -34.652,-126.828 -114.332,-126.828 -76.25,0 -115.75,45.738 -115.75,126.828 V 740.98 H 603.672 V 463.75 c 0,-143.441 72.066,-248.129 223.168,-248.129 z" /></clipPath><linearGradient
       id="linearGradient138"
       spreadMethod="pad"
       gradientTransform="matrix(7.5,0,0,-7.5,-487.5,2138.44)"
       gradientUnits="userSpaceOnUse"
       y2="235"
       x2="485"
       y1="235"
       x1="65"><stop
         id="stop134"
         offset="0"
         style="stop-opacity:1;stop-color:#7b4397" /><stop
         id="stop136"
         offset="1"
         style="stop-opacity:1;stop-color:#dc2430" /></linearGradient><clipPath
       id="clipPath148"
       clipPathUnits="userSpaceOnUse"><path
         id="path146"
         d="m 1648.83,224.648 v 419.301 h 120.58 v 97.031 h -503.86 c -74.85,0 -157.35,-62.351 -157.35,-148.992 0,-81.789 61.02,-137.218 153.87,-146.949 51.29,-5.551 79.73,-28.398 79.73,-64.449 0,-33.25 -28.44,-61.68 -65.16,-61.68 -30.51,0 -54.76,7.61 -78.32,37.418 l -88.71,-65.156 c 49.22,-54.063 108.12,-75.551 167.03,-75.551 90.78,0 174.65,72.109 174.65,172.578 0,94.262 -72.77,150.43 -160.78,155.942 -54.77,3.48 -72.11,28.437 -72.11,51.988 0,29.812 18.71,47.82 47.15,47.82 h 276.52 V 224.648 Z" /></clipPath><linearGradient
       id="linearGradient154"
       spreadMethod="pad"
       gradientTransform="matrix(7.5,0,0,-7.5,-487.5,2138.44)"
       gradientUnits="userSpaceOnUse"
       y2="235"
       x2="485"
       y1="235"
       x1="65"><stop
         id="stop150"
         offset="0"
         style="stop-opacity:1;stop-color:#7b4397" /><stop
         id="stop152"
         offset="1"
         style="stop-opacity:1;stop-color:#dc2430" /></linearGradient><clipPath
       id="clipPath164"
       clipPathUnits="userSpaceOnUse"><path
         id="path162"
         d="M 2123.55,224.648 H 2240.7 L 1967.62,750 1695.23,224.648 h 110.9 l 33.28,69.301 h 250.2 z m -160.07,327.153 78.98,-160.821 h -156.6 z" /></clipPath><linearGradient
       id="linearGradient170"
       spreadMethod="pad"
       gradientTransform="matrix(7.5,0,0,-7.5,-487.5,2138.44)"
       gradientUnits="userSpaceOnUse"
       y2="235"
       x2="485"
       y1="235"
       x1="65"><stop
         id="stop166"
         offset="0"
         style="stop-opacity:1;stop-color:#7b4397" /><stop
         id="stop168"
         offset="1"
         style="stop-opacity:1;stop-color:#dc2430" /></linearGradient><clipPath
       id="clipPath180"
       clipPathUnits="userSpaceOnUse"><path
         id="path178"
         d="M 2386.25,438.121 2229.61,740.98 h -123.36 l 275.82,-525.359 262.7,525.359 h -110.9 z" /></clipPath><linearGradient
       id="linearGradient186"
       spreadMethod="pad"
       gradientTransform="matrix(7.5,0,0,-7.5,-487.5,2138.44)"
       gradientUnits="userSpaceOnUse"
       y2="235"
       x2="485"
       y1="235"
       x1="65"><stop
         id="stop182"
         offset="0"
         style="stop-opacity:1;stop-color:#7b4397" /><stop
         id="stop184"
         offset="1"
         style="stop-opacity:1;stop-color:#dc2430" /></linearGradient><clipPath
       id="clipPath196"
       clipPathUnits="userSpaceOnUse"><path
         id="path194"
         d="m 2883.16,215.621 c 147.62,0 266.84,119.93 266.84,267.539 0,147.621 -119.22,266.84 -267.54,266.84 -147.62,0 -266.84,-119.219 -266.84,-266.84 0,-147.609 119.22,-267.539 267.54,-267.539 z m -0.7,431.801 c 87.34,0 157.34,-73.473 157.34,-164.262 0,-92.18 -69.29,-164.25 -156.64,-164.25 -88.71,0 -157.3,72.07 -157.3,164.25 0,90.789 68.59,164.262 156.6,164.262 z" /></clipPath><linearGradient
       id="linearGradient202"
       spreadMethod="pad"
       gradientTransform="matrix(7.5,0,0,-7.5,-487.5,2138.44)"
       gradientUnits="userSpaceOnUse"
       y2="235"
       x2="485"
       y1="235"
       x1="65"><stop
         id="stop198"
         offset="0"
         style="stop-opacity:1;stop-color:#7b4397" /><stop
         id="stop200"
         offset="1"
         style="stop-opacity:1;stop-color:#dc2430" /></linearGradient></defs><g
     transform="matrix(1.3333333,0,0,-1.3333333,0,100)"
     id="g10"><g
       transform="scale(0.1)"
       id="g12"><g
         id="g14"><g
           clip-path="url(#clipPath20)"
           id="g16"><path
             id="path28"
             style="fill:url(#linearGradient26);fill-opacity:1;fill-rule:nonzero;stroke:none"
             d="m 159.648,1.87891 c 24.961,0 44.731,12.96089 44.731,29.80079 0,16.8711 -19.77,30.1601 -44.731,30.1601 -18.789,0 -34.687,9.0586 -34.687,20.0704 0,11.0586 15.898,20.1208 34.687,20.1208 10.704,0 20.743,-2.9294 27.543,-7.7693 l 0.348,-0.3515 c 1.602,-1.2891 3.199,-2.8907 4.18,-4.1797 1.64,-2.2696 4.883,-2.6211 6.832,-1.3321 2.269,1.6407 2.898,4.8829 1.289,7.1524 -6.789,9.0582 -20.11,15.2302 -35,16.2112 -0.352,0 -0.66,0 -0.969,0 -1.293,0.308 -2.621,0.308 -4.223,0.308 -24.957,0 -44.418,-13.2809 -44.418,-30.1598 0,-16.8321 19.461,-30.1094 44.418,-30.1094 18.793,0 35,-9.0703 35,-20.1211 0,-11.0195 -16.207,-20.0781 -35,-20.0781 -10.699,0 -20.738,2.9297 -27.226,7.7773 -0.313,0 -0.313,0.3516 -0.313,0.3516 -1.949,1.289 -3.238,2.8906 -4.531,4.1797 -1.637,2.2617 -4.566,2.9296 -6.84,1.3203 -2.258,-1.6407 -2.578,-4.8789 -0.937,-6.8321 6.449,-9.37887 19.769,-15.54684 35,-16.51949 0.32,0 0.629,0 0.937,0 1.332,0 2.621,0 3.91,0 z" /></g></g><g
         id="g30"><g
           clip-path="url(#clipPath36)"
           id="g32"><path
             id="path44"
             style="fill:url(#linearGradient42);fill-opacity:1;fill-rule:nonzero;stroke:none"
             d="m 743.441,1.87891 c 2.61,0 4.879,1.94922 4.879,4.88281 0,2.57812 -2.269,4.83988 -4.879,4.83988 h -78.75 c -2.929,0 -4.851,-2.26176 -4.851,-4.83988 0,-2.93359 1.922,-4.88281 4.851,-4.88281 z m 0.661,49.92189 c 2.578,0 4.847,2.2578 4.847,5.1875 0,2.582 -2.269,4.8515 -4.847,4.8515 h -79.411 c -2.929,0 -4.851,-2.2695 -4.851,-4.8515 0,-2.9297 1.922,-5.1875 4.851,-5.1875 z m -0.661,50.2302 c 2.61,0 4.879,2.27 4.879,5.199 0,2.571 -2.269,4.84 -4.879,4.84 h -78.75 c -2.929,0 -4.851,-2.269 -4.851,-4.84 0,-2.929 1.922,-5.199 4.851,-5.199 z" /></g></g><g
         id="g46"><g
           clip-path="url(#clipPath52)"
           id="g48"><path
             id="path60"
             style="fill:url(#linearGradient58);fill-opacity:1;fill-rule:nonzero;stroke:none"
             d="m 1261.99,1.87891 c 16.53,0 30.16,13.28129 30.16,29.80079 0,10.6992 -5.51,19.8008 -13.63,25.3086 8.12,5.1601 13.63,14.5703 13.63,24.9219 0,16.5703 -13.63,30.1598 -30.16,30.1598 h -53.47 c -2.58,0 -4.85,-2.269 -4.85,-4.84 0,-2.929 2.27,-5.199 4.85,-5.199 h 53.47 c 11.02,0 20.12,-9.0622 20.12,-20.1208 0,-11.0118 -9.1,-20.0704 -20.12,-20.0704 h -26.87 c -2.62,0 -4.89,-2.2695 -4.89,-4.8515 0,-2.9297 2.27,-5.1875 4.89,-5.1875 h 26.87 c 11.02,0 20.12,-8.75 20.12,-20.1211 0,-11.0195 -9.1,-20.0781 -20.12,-20.0781 h -53.47 c -2.58,0 -4.85,-2.26176 -4.85,-4.83988 0,-2.93359 2.27,-4.88281 4.85,-4.88281 z" /></g></g><g
         id="g62"><g
           clip-path="url(#clipPath68)"
           id="g64"><path
             id="path76"
             style="fill:url(#linearGradient74);fill-opacity:1;fill-rule:nonzero;stroke:none"
             d="m 1824.84,1.87891 c 30.16,0 54.77,24.64059 54.77,55.10939 0,30.1211 -24.61,55.0817 -54.77,55.0817 -30.15,0 -54.76,-24.9606 -54.76,-55.0817 0,-30.4688 24.61,-55.10939 54.76,-55.10939 z m 0,100.15209 c 24.96,0 45.04,-20.1208 45.04,-45.0427 0,-24.957 -20.08,-45.3867 -45.04,-45.3867 -24.64,0 -44.72,20.4297 -44.72,45.3867 0,24.9219 20.08,45.0427 44.72,45.0427 z" /></g></g><g
         id="g78"><g
           clip-path="url(#clipPath84)"
           id="g80"><path
             id="path92"
             style="fill:url(#linearGradient90);fill-opacity:1;fill-rule:nonzero;stroke:none"
             d="m 2441.17,1.87891 c 2.58,0 4.85,1.94922 4.85,4.88281 0,2.57812 -2.27,4.83988 -4.85,4.83988 h -73.9 V 107.23 c 0,2.571 -2.27,4.84 -4.89,4.84 -2.89,0 -4.84,-2.269 -4.84,-4.84 V 6.76172 c 0,-2.93359 1.95,-4.88281 4.84,-4.88281 z" /></g></g><g
         id="g94"><g
           clip-path="url(#clipPath100)"
           id="g96"><path
             id="path108"
             style="fill:url(#linearGradient106);fill-opacity:1;fill-rule:nonzero;stroke:none"
             d="m 2978.71,1.87891 c 30.16,0 54.77,24.29299 54.77,54.44919 v 0.9727 c 0,30.1601 -24.61,54.7692 -54.77,54.7692 h -49.92 c -2.58,0 -4.84,-2.269 -4.84,-4.84 0,-2.929 2.26,-5.199 4.84,-5.199 h 49.92 c 24.96,0 45.04,-20.1208 45.04,-44.7302 v -0.9727 c 0,-24.6484 -20.08,-44.7265 -45.04,-44.7265 h -49.92 c -2.58,0 -4.84,-2.26176 -4.84,-4.83988 0,-2.93359 2.26,-4.88281 4.84,-4.88281 z" /></g></g><g
         id="g110"><g
           clip-path="url(#clipPath116)"
           id="g112"><path
             id="path124"
             style="fill:url(#linearGradient122);fill-opacity:1;fill-rule:nonzero;stroke:none"
             d="M 532.969,506.719 H 268.199 V 411.09 h 140 c -22.847,-60.309 -80.39,-92.18 -142.769,-92.18 -86.602,0 -155.231,72.77 -155.231,163.551 0,91.488 68.629,164.961 155.231,164.961 61.019,0 114.371,-34.652 141.41,-85.231 l 85.93,62.379 C 446.328,700.121 361.09,750 264.77,750 117.809,750 0,630.121 0,482.461 0,334.84 117.809,215.621 265.43,215.621 c 148.32,0 267.539,122.699 267.539,275.16 z" /></g></g><g
         id="g126"><g
           clip-path="url(#clipPath132)"
           id="g128"><path
             id="path140"
             style="fill:url(#linearGradient138);fill-opacity:1;fill-rule:nonzero;stroke:none"
             d="m 826.84,215.621 c 137.93,0 221.79,88.758 221.79,239.149 V 740.98 H 941.172 V 445.738 c 0,-77.617 -34.652,-126.828 -114.332,-126.828 -76.25,0 -115.75,45.738 -115.75,126.828 V 740.98 H 603.672 V 463.75 c 0,-143.441 72.066,-248.129 223.168,-248.129 z" /></g></g><g
         id="g142"><g
           clip-path="url(#clipPath148)"
           id="g144"><path
             id="path156"
             style="fill:url(#linearGradient154);fill-opacity:1;fill-rule:nonzero;stroke:none"
             d="m 1648.83,224.648 v 419.301 h 120.58 v 97.031 h -503.86 c -74.85,0 -157.35,-62.351 -157.35,-148.992 0,-81.789 61.02,-137.218 153.87,-146.949 51.29,-5.551 79.73,-28.398 79.73,-64.449 0,-33.25 -28.44,-61.68 -65.16,-61.68 -30.51,0 -54.76,7.61 -78.32,37.418 l -88.71,-65.156 c 49.22,-54.063 108.12,-75.551 167.03,-75.551 90.78,0 174.65,72.109 174.65,172.578 0,94.262 -72.77,150.43 -160.78,155.942 -54.77,3.48 -72.11,28.437 -72.11,51.988 0,29.812 18.71,47.82 47.15,47.82 h 276.52 V 224.648 Z" /></g></g><g
         id="g158"><g
           clip-path="url(#clipPath164)"
           id="g160"><path
             id="path172"
             style="fill:url(#linearGradient170);fill-opacity:1;fill-rule:nonzero;stroke:none"
             d="M 2123.55,224.648 H 2240.7 L 1967.62,750 1695.23,224.648 h 110.9 l 33.28,69.301 h 250.2 z m -160.07,327.153 78.98,-160.821 h -156.6 z" /></g></g><g
         id="g174"><g
           clip-path="url(#clipPath180)"
           id="g176"><path
             id="path188"
             style="fill:url(#linearGradient186);fill-opacity:1;fill-rule:nonzero;stroke:none"
             d="M 2386.25,438.121 2229.61,740.98 h -123.36 l 275.82,-525.359 262.7,525.359 h -110.9 z" /></g></g><g
         id="g190"><g
           clip-path="url(#clipPath196)"
           id="g192"><path
             id="path204"
             style="fill:url(#linearGradient202);fill-opacity:1;fill-rule:nonzero;stroke:none"
             d="m 2883.16,215.621 c 147.62,0 266.84,119.93 266.84,267.539 0,147.621 -119.22,266.84 -267.54,266.84 -147.62,0 -266.84,-119.219 -266.84,-266.84 0,-147.609 119.22,-267.539 267.54,-267.539 z m -0.7,431.801 c 87.34,0 157.34,-73.473 157.34,-164.262 0,-92.18 -69.29,-164.25 -156.64,-164.25 -88.71,0 -157.3,72.07 -157.3,164.25 0,90.789 68.59,164.262 156.6,164.262 z" /></g></g></g></g></svg>