<?xml version="1.0" encoding="UTF-8" standalone="no"?>
<svg
   xmlns:dc="http://purl.org/dc/elements/1.1/"
   xmlns:cc="http://creativecommons.org/ns#"
   xmlns:rdf="http://www.w3.org/1999/02/22-rdf-syntax-ns#"
   xmlns:svg="http://www.w3.org/2000/svg"
   xmlns="http://www.w3.org/2000/svg"
   viewBox="0 0 240 240"
   height="240"
   width="240"
   xml:space="preserve"
   id="svg2"
   version="1.1"><metadata
     id="metadata8"><rdf:RDF><cc:Work
         rdf:about=""><dc:format>image/svg+xml</dc:format><dc:type
           rdf:resource="http://purl.org/dc/dcmitype/StillImage" /></cc:Work></rdf:RDF></metadata><defs
     id="defs6" /><g
     transform="matrix(1.3333333,0,0,-1.3333333,0,240)"
     id="g10"><g
       transform="scale(0.1)"
       id="g12"><path
         id="path14"
         style="fill:#ffffff;fill-opacity:1;fill-rule:nonzero;stroke:none"
         d="M 401.449,593.98 H 274.801 v -45.781 h 67 c -10.981,-28.82 -38.481,-44.097 -68.321,-44.097 -41.449,0 -74.3,34.847 -74.3,78.277 0,43.75 32.851,78.91 74.3,78.91 29.18,0 54.719,-16.598 67.649,-40.777 l 41.101,29.84 c -22.23,36.128 -63.011,60 -109.109,60 -70.269,0 -126.641,-57.34 -126.641,-127.973 0,-70.66 56.372,-127.688 127,-127.688 70.93,0 127.969,58.707 127.969,131.641 z" /><path
         id="path16"
         style="fill:#ffffff;fill-opacity:1;fill-rule:nonzero;stroke:none"
         d="m 542.07,454.691 c 65.981,0 106.09,42.457 106.09,114.411 v 136.949 h -51.398 v -141.25 c 0,-37.141 -16.563,-60.699 -54.692,-60.699 -36.48,0 -55.39,21.878 -55.39,60.699 v 141.25 H 435.27 V 573.398 c 0,-68.628 34.5,-118.707 106.8,-118.707 z" /><path
         id="path18"
         style="fill:#ffffff;fill-opacity:1;fill-rule:nonzero;stroke:none"
         d="m 935.309,459.02 v 200.589 h 57.703 v 46.442 H 751.949 c -35.82,0 -75.269,-29.84 -75.269,-71.281 0,-39.149 29.179,-65.668 73.59,-70.321 24.57,-2.648 38.171,-13.59 38.171,-30.82 0,-15.93 -13.601,-29.527 -31.171,-29.527 -14.61,0 -26.219,3.668 -37.5,17.929 l -42.43,-31.172 c 23.558,-25.859 51.719,-36.168 79.93,-36.168 43.429,0 83.55,34.489 83.55,82.579 0,45.109 -34.84,71.949 -76.949,74.609 -26.172,1.641 -34.461,13.59 -34.461,24.883 0,14.258 8.949,22.847 22.539,22.847 H 884.262 V 459.02 Z" /><path
         id="path20"
         style="fill:#ffffff;fill-opacity:1;fill-rule:nonzero;stroke:none"
         d="m 1162.46,459.02 h 56.02 L 1087.85,710.352 957.539,459.02 h 53.051 l 15.89,33.171 h 119.73 z m -76.6,156.492 37.77,-76.922 h -74.92 z" /><path
         id="path22"
         style="fill:#ffffff;fill-opacity:1;fill-rule:nonzero;stroke:none"
         d="m 1288.12,561.129 -74.96,144.922 h -59.02 l 131.99,-251.36 125.67,251.36 h -53.05 z" /><path
         id="path24"
         style="fill:#ffffff;fill-opacity:1;fill-rule:nonzero;stroke:none"
         d="m 1525.86,454.691 c 70.62,0 127.66,57.379 127.66,128.008 0,70.621 -57.04,127.653 -127.97,127.653 -70.63,0 -127.66,-57.032 -127.66,-127.653 0,-70.629 57.03,-128.008 127.97,-128.008 z m -0.31,206.598 c 41.75,0 75.23,-35.16 75.23,-78.59 0,-44.109 -33.12,-78.597 -74.92,-78.597 -42.42,0 -75.27,34.488 -75.27,78.597 0,43.43 32.85,78.59 74.96,78.59 z" /><path
         id="path26"
         style="fill:#ffffff;fill-opacity:1;fill-rule:evenodd;stroke:none"
         d="m 272.93,274.84 c 13.629,-13.469 31.84,-21.559 54.609,-24.219 h 0.039 c 21.481,-2.383 32.223,-12.141 32.223,-29.293 0,-6.527 -2.379,-12.109 -7.102,-16.84 -4.847,-4.758 -10.711,-7.148 -17.539,-7.148 -13.75,0 -24.808,5.238 -33.129,15.781 -0.121,0.16 -0.23,0.277 -0.351,0.399 -0.16,0.152 -0.27,0.269 -0.391,0.39 -0.16,0.11 -0.269,0.192 -0.43,0.309 -0.16,0.121 -0.269,0.191 -0.429,0.269 -0.16,0.121 -0.309,0.203 -0.469,0.242 -0.191,0.071 -0.352,0.149 -0.512,0.192 -0.148,0.078 -0.347,0.117 -0.5,0.156 -0.199,0.043 -0.359,0.082 -0.551,0.121 -0.16,0 -0.347,0.031 -0.507,0.031 -0.192,0 -0.352,0 -0.551,0 -0.149,-0.031 -0.352,-0.031 -0.5,-0.07 -0.199,0 -0.36,-0.039 -0.512,-0.082 -0.199,-0.078 -0.348,-0.117 -0.508,-0.156 -0.199,-0.082 -0.351,-0.152 -0.511,-0.231 -0.149,-0.082 -0.309,-0.16 -0.469,-0.242 -0.149,-0.07 -0.27,-0.187 -0.43,-0.308 l -42.461,-31.129 c -0.269,-0.242 -0.539,-0.473 -0.777,-0.742 -0.274,-0.282 -0.473,-0.551 -0.66,-0.86 -0.203,-0.32 -0.352,-0.629 -0.473,-0.98 -0.117,-0.352 -0.199,-0.7 -0.269,-1.051 -0.04,-0.359 -0.079,-0.707 -0.04,-1.098 0,-0.351 0.04,-0.703 0.149,-1.051 0.082,-0.351 0.199,-0.71 0.351,-1.019 0.161,-0.352 0.321,-0.66 0.551,-0.941 0.117,-0.149 0.239,-0.309 0.348,-0.469 23.051,-25.27 51.062,-37.922 84.031,-37.922 23.789,0 44.41,8.242 61.871,24.762 18.129,17.148 27.188,38.281 27.188,63.32 0,24.609 -8.129,44.73 -24.34,60.348 -15.188,14.57 -34.41,22.621 -57.77,24.07 -19.531,1.242 -29.3,7.141 -29.3,17.691 0,10.942 5.781,16.371 17.351,16.371 8.121,0 15.5,-3.519 22.219,-10.55 0.121,-0.121 0.242,-0.231 0.351,-0.352 0.122,-0.117 0.239,-0.199 0.391,-0.309 0.117,-0.082 0.277,-0.199 0.399,-0.281 0.152,-0.07 0.308,-0.148 0.46,-0.23 0.122,-0.078 0.282,-0.117 0.43,-0.199 0.16,-0.04 0.32,-0.11 0.469,-0.149 0.16,-0.043 0.351,-0.082 0.512,-0.121 0.16,0 0.308,-0.039 0.468,-0.039 0.192,-0.039 0.352,-0.039 0.512,-0.039 0.149,0 0.348,0 0.508,0.039 0.152,0 0.312,0.039 0.461,0.039 0.199,0.039 0.359,0.078 0.512,0.121 0.16,0.039 0.308,0.109 0.468,0.149 0.16,0.082 0.309,0.121 0.469,0.199 0.121,0.082 0.27,0.16 0.43,0.23 0.121,0.082 0.269,0.199 0.39,0.281 l 40.469,29.532 c 0.152,0.078 0.274,0.187 0.434,0.308 0.109,0.16 0.269,0.27 0.386,0.391 0.122,0.16 0.231,0.269 0.352,0.43 0.078,0.16 0.199,0.269 0.27,0.429 0.121,0.16 0.199,0.309 0.281,0.508 0.078,0.152 0.148,0.313 0.187,0.473 0.082,0.187 0.121,0.347 0.203,0.539 0.039,0.16 0.079,0.359 0.079,0.512 0.031,0.199 0.07,0.347 0.07,0.546 0,0.192 0,0.352 0,0.551 0,0.153 -0.039,0.352 -0.039,0.539 -0.031,0.16 -0.071,0.352 -0.11,0.512 -0.043,0.199 -0.082,0.352 -0.16,0.551 -0.043,0.148 -0.121,0.308 -0.191,0.469 -0.078,0.191 -0.16,0.351 -0.238,0.5 -0.122,0.16 -0.192,0.32 -0.313,0.429 -0.078,0.121 -0.16,0.199 -0.238,0.321 -18.903,22.531 -42.5,33.781 -70.891,33.781 -19.461,0 -37.07,-7.102 -52.82,-21.403 -16.871,-15.308 -25.309,-33.789 -25.309,-55.386 0,-20.821 6.949,-38.133 20.899,-51.922 z m 55.898,-13.238 h -0.039 c -20.238,2.378 -36.25,9.418 -48.09,21.097 -11.75,11.641 -17.609,26.321 -17.609,44.063 0,18.359 7.219,34.097 21.68,47.218 13.628,12.348 28.75,18.52 45.39,18.52 23,0 42.5,-8.48 58.469,-25.391 l -31.75,-23.199 c -8.008,7.07 -16.918,10.578 -26.719,10.578 -8.32,0 -15.082,-2.457 -20.32,-7.34 -5.391,-5.039 -8.078,-11.757 -8.078,-20.078 0,-17.461 13.238,-27.031 39.687,-28.711 20.621,-1.289 37.531,-8.32 50.742,-21.019 13.981,-13.43 20.969,-30.891 20.969,-52.379 0,-21.871 -7.89,-40.313 -23.75,-55.313 -15.308,-14.488 -33.39,-21.718 -54.25,-21.718 -27.738,0 -51.609,9.961 -71.57,29.879 l 33.25,24.421 c 10.07,-10.628 22.851,-15.941 38.32,-15.941 9.879,0 18.32,3.441 25.309,10.391 6.91,6.84 10.39,15.082 10.39,24.648 0,23.75 -14.019,37.152 -42.031,40.274 z" /><path
         id="path28"
         style="fill:#ffffff;fill-opacity:1;fill-rule:evenodd;stroke:none"
         d="m 606.371,141.172 c 0.188,0 0.391,0 0.539,0.039 0.199,0 0.36,0.039 0.551,0.078 0.199,0.039 0.348,0.082 0.508,0.121 0.191,0.07 0.351,0.11 0.551,0.192 0.152,0.078 0.308,0.16 0.46,0.238 0.161,0.07 0.321,0.148 0.469,0.269 0.16,0.121 0.321,0.192 0.43,0.313 0.16,0.117 0.281,0.238 0.391,0.387 0.16,0.121 0.281,0.242 0.39,0.39 0.121,0.121 0.199,0.281 0.32,0.43 0.11,0.16 0.192,0.32 0.27,0.473 0.078,0.16 0.16,0.308 0.23,0.468 0.079,0.2 0.122,0.352 0.2,0.551 0.039,0.149 0.082,0.309 0.121,0.5 0.039,0.199 0.078,0.359 0.078,0.551 0.031,0.156 0.031,0.348 0.031,0.547 v 46.402 c 0,0.199 0,0.359 -0.031,0.551 0,0.156 -0.039,0.348 -0.078,0.547 -0.039,0.16 -0.082,0.351 -0.121,0.511 -0.078,0.192 -0.121,0.348 -0.2,0.5 -0.07,0.161 -0.152,0.36 -0.23,0.508 -0.078,0.16 -0.16,0.313 -0.27,0.473 -0.121,0.117 -0.199,0.269 -0.32,0.43 -0.109,0.121 -0.23,0.269 -0.39,0.39 -0.11,0.117 -0.231,0.239 -0.391,0.348 -0.109,0.121 -0.27,0.242 -0.43,0.351 -0.148,0.079 -0.308,0.2 -0.469,0.282 -0.152,0.078 -0.308,0.148 -0.46,0.226 -0.2,0.043 -0.36,0.121 -0.551,0.16 -0.16,0.082 -0.309,0.122 -0.508,0.153 -0.191,0.039 -0.352,0.039 -0.551,0.078 -0.148,0 -0.351,0 -0.539,0 h -96.25 v 50.633 h 87.301 c 0.199,0 0.348,0.039 0.547,0.039 0.191,0.039 0.351,0.039 0.551,0.078 0.152,0.031 0.351,0.07 0.5,0.109 0.199,0.082 0.359,0.121 0.511,0.203 0.199,0.079 0.348,0.149 0.508,0.231 0.16,0.078 0.313,0.199 0.473,0.277 0.148,0.11 0.269,0.231 0.429,0.352 0.149,0.07 0.27,0.23 0.387,0.347 0.152,0.122 0.274,0.274 0.391,0.391 0.082,0.16 0.191,0.27 0.312,0.43 0.078,0.16 0.199,0.312 0.27,0.472 0.078,0.149 0.16,0.309 0.238,0.508 0.082,0.153 0.121,0.313 0.191,0.5 0.04,0.16 0.079,0.352 0.122,0.512 0.039,0.199 0.078,0.348 0.078,0.551 0,0.187 0.039,0.347 0.039,0.539 v 46.41 c 0,0.199 -0.039,0.391 -0.039,0.551 0,0.187 -0.039,0.347 -0.078,0.539 -0.043,0.16 -0.082,0.359 -0.122,0.508 -0.07,0.203 -0.109,0.351 -0.191,0.511 -0.078,0.2 -0.16,0.352 -0.238,0.508 -0.071,0.152 -0.192,0.313 -0.27,0.473 -0.121,0.148 -0.23,0.269 -0.312,0.429 -0.117,0.149 -0.239,0.27 -0.391,0.391 -0.117,0.149 -0.238,0.27 -0.387,0.391 -0.16,0.109 -0.281,0.187 -0.429,0.308 -0.16,0.078 -0.313,0.2 -0.473,0.27 -0.16,0.082 -0.309,0.16 -0.508,0.238 -0.152,0.082 -0.312,0.121 -0.511,0.192 -0.149,0.039 -0.348,0.082 -0.5,0.121 -0.2,0.039 -0.36,0.078 -0.551,0.078 -0.199,0.043 -0.348,0.043 -0.547,0.043 h -87.301 v 35.039 h 74.367 c 0.203,0 0.352,0 0.551,0 0.191,0.039 0.352,0.078 0.551,0.078 0.148,0.031 0.351,0.07 0.5,0.152 0.199,0.039 0.359,0.117 0.512,0.16 0.199,0.079 0.347,0.149 0.507,0.231 0.161,0.117 0.313,0.199 0.469,0.308 0.152,0.079 0.274,0.2 0.434,0.321 0.109,0.109 0.269,0.23 0.386,0.347 0.122,0.122 0.274,0.274 0.391,0.391 0.082,0.16 0.191,0.313 0.313,0.473 0.078,0.117 0.199,0.269 0.277,0.429 0.07,0.188 0.152,0.348 0.23,0.508 0.082,0.153 0.121,0.352 0.192,0.5 0.039,0.199 0.078,0.352 0.121,0.551 0.039,0.16 0.039,0.352 0.078,0.512 0,0.187 0.039,0.386 0.039,0.539 v 46.449 c 0,0.16 -0.039,0.352 -0.039,0.512 -0.039,0.187 -0.039,0.386 -0.078,0.539 -0.043,0.199 -0.082,0.359 -0.121,0.551 -0.071,0.16 -0.11,0.308 -0.192,0.507 -0.078,0.161 -0.16,0.313 -0.23,0.469 -0.078,0.152 -0.199,0.313 -0.277,0.473 -0.122,0.148 -0.231,0.308 -0.313,0.429 -0.117,0.149 -0.269,0.27 -0.391,0.43 -0.117,0.11 -0.277,0.231 -0.386,0.352 -0.16,0.109 -0.282,0.226 -0.434,0.308 -0.156,0.121 -0.308,0.2 -0.469,0.27 -0.16,0.121 -0.308,0.199 -0.507,0.238 -0.153,0.082 -0.313,0.152 -0.512,0.192 -0.149,0.039 -0.352,0.082 -0.5,0.121 -0.199,0.039 -0.36,0.078 -0.551,0.078 -0.199,0.043 -0.348,0.043 -0.551,0.043 H 453.199 c -0.187,0 -0.39,0 -0.539,-0.043 -0.199,0 -0.359,-0.039 -0.551,-0.078 -0.16,-0.039 -0.347,-0.082 -0.507,-0.121 -0.192,-0.04 -0.352,-0.11 -0.512,-0.192 -0.192,-0.039 -0.352,-0.117 -0.5,-0.238 -0.16,-0.07 -0.32,-0.149 -0.469,-0.27 -0.16,-0.082 -0.281,-0.199 -0.43,-0.308 -0.16,-0.121 -0.281,-0.242 -0.39,-0.352 -0.16,-0.16 -0.281,-0.281 -0.391,-0.43 -0.121,-0.121 -0.199,-0.281 -0.32,-0.429 -0.11,-0.16 -0.192,-0.321 -0.27,-0.473 -0.082,-0.156 -0.16,-0.308 -0.23,-0.469 -0.078,-0.199 -0.121,-0.347 -0.199,-0.507 -0.039,-0.192 -0.082,-0.352 -0.121,-0.551 -0.04,-0.153 -0.071,-0.352 -0.071,-0.539 -0.039,-0.16 -0.039,-0.352 -0.039,-0.512 V 146.719 c 0,-0.199 0,-0.391 0.039,-0.547 0,-0.192 0.031,-0.352 0.071,-0.551 0.039,-0.191 0.082,-0.351 0.121,-0.5 0.078,-0.199 0.121,-0.351 0.199,-0.551 0.07,-0.16 0.148,-0.308 0.23,-0.468 0.078,-0.153 0.16,-0.313 0.27,-0.473 0.121,-0.149 0.199,-0.309 0.32,-0.43 0.11,-0.148 0.231,-0.269 0.391,-0.39 0.109,-0.149 0.23,-0.27 0.39,-0.387 0.149,-0.121 0.27,-0.192 0.43,-0.313 0.149,-0.121 0.309,-0.199 0.469,-0.269 0.148,-0.078 0.308,-0.16 0.5,-0.238 0.16,-0.082 0.32,-0.122 0.512,-0.192 0.16,-0.039 0.347,-0.082 0.507,-0.121 0.192,-0.039 0.352,-0.078 0.551,-0.078 0.149,-0.039 0.352,-0.039 0.539,-0.039 z m -5.512,11.058 v 35.391 H 504.57 c -0.16,0 -0.351,0 -0.511,0 -0.188,0.039 -0.387,0.039 -0.539,0.078 -0.2,0.031 -0.36,0.071 -0.551,0.153 -0.16,0.039 -0.309,0.117 -0.508,0.16 -0.16,0.078 -0.313,0.148 -0.473,0.226 -0.148,0.082 -0.308,0.203 -0.468,0.282 -0.149,0.109 -0.309,0.23 -0.43,0.351 -0.149,0.109 -0.27,0.231 -0.43,0.348 -0.109,0.121 -0.23,0.269 -0.351,0.39 -0.11,0.161 -0.231,0.313 -0.309,0.43 -0.121,0.16 -0.199,0.313 -0.27,0.473 -0.121,0.148 -0.199,0.347 -0.242,0.508 -0.078,0.152 -0.148,0.308 -0.187,0.5 -0.039,0.16 -0.082,0.359 -0.121,0.511 -0.039,0.199 -0.078,0.391 -0.078,0.547 -0.043,0.192 -0.043,0.352 -0.043,0.543 v 61.68 c 0,0.199 0,0.359 0.043,0.551 0,0.16 0.039,0.347 0.078,0.507 0.039,0.192 0.082,0.391 0.121,0.551 0.039,0.149 0.109,0.352 0.187,0.5 0.043,0.16 0.121,0.32 0.242,0.512 0.071,0.156 0.149,0.308 0.27,0.43 0.078,0.16 0.199,0.308 0.309,0.468 0.121,0.121 0.242,0.27 0.351,0.391 0.16,0.117 0.281,0.238 0.43,0.348 0.121,0.121 0.281,0.242 0.43,0.351 0.16,0.078 0.32,0.16 0.468,0.281 0.16,0.079 0.313,0.149 0.473,0.231 0.199,0.039 0.348,0.117 0.508,0.156 0.191,0.082 0.351,0.121 0.551,0.152 0.152,0.04 0.351,0.04 0.539,0.079 0.16,0 0.351,0 0.511,0 h 87.34 v 35.39 h -87.34 c -0.16,0 -0.351,0 -0.511,0 -0.188,0.039 -0.387,0.082 -0.539,0.121 -0.2,0 -0.36,0.078 -0.551,0.121 -0.16,0.039 -0.309,0.11 -0.508,0.188 -0.16,0.043 -0.313,0.121 -0.473,0.199 -0.148,0.121 -0.308,0.192 -0.468,0.313 -0.149,0.078 -0.309,0.199 -0.43,0.308 -0.149,0.121 -0.27,0.242 -0.43,0.352 -0.109,0.16 -0.23,0.277 -0.351,0.429 -0.11,0.122 -0.231,0.282 -0.309,0.43 -0.121,0.16 -0.199,0.281 -0.27,0.469 -0.121,0.16 -0.199,0.32 -0.242,0.473 -0.078,0.16 -0.148,0.347 -0.187,0.507 -0.039,0.192 -0.082,0.352 -0.121,0.551 -0.039,0.149 -0.078,0.352 -0.078,0.5 -0.043,0.199 -0.043,0.391 -0.043,0.551 v 46.09 c 0,0.199 0,0.359 0.043,0.551 0,0.199 0.039,0.347 0.078,0.546 0.039,0.153 0.082,0.352 0.121,0.512 0.039,0.192 0.109,0.352 0.187,0.5 0.043,0.199 0.121,0.36 0.242,0.512 0.071,0.156 0.149,0.308 0.27,0.469 0.078,0.16 0.199,0.269 0.309,0.429 0.121,0.16 0.242,0.27 0.351,0.391 0.16,0.117 0.281,0.269 0.43,0.391 0.121,0.078 0.281,0.199 0.43,0.308 0.16,0.078 0.32,0.199 0.468,0.281 0.16,0.079 0.313,0.149 0.473,0.231 0.199,0.078 0.348,0.117 0.508,0.199 0.191,0.039 0.351,0.078 0.551,0.109 0.152,0.04 0.351,0.079 0.539,0.079 0.16,0 0.351,0.043 0.511,0.043 h 74.41 v 35.347 H 458.711 V 152.23 Z" /><path
         id="path30"
         style="fill:#ffffff;fill-opacity:1;fill-rule:evenodd;stroke:none"
         d="m 643.199,141.172 h 86.211 c 25.281,0 46.719,7.379 64.34,22.187 19.141,16.051 28.711,37.032 28.711,62.93 0,24.762 -10.191,45.121 -30.582,61.012 9.762,11.097 14.68,24.808 14.68,41.097 0,23.942 -8.118,42.071 -24.329,54.372 -14.5,10.98 -34.421,16.492 -59.808,16.492 h -79.223 c -0.187,0 -0.39,0 -0.539,-0.043 -0.199,0 -0.359,-0.039 -0.551,-0.078 -0.199,-0.039 -0.347,-0.082 -0.507,-0.121 -0.192,-0.04 -0.352,-0.11 -0.512,-0.192 -0.192,-0.078 -0.352,-0.117 -0.5,-0.238 -0.16,-0.07 -0.32,-0.149 -0.469,-0.27 -0.16,-0.082 -0.32,-0.199 -0.43,-0.308 -0.16,-0.121 -0.281,-0.242 -0.39,-0.352 -0.16,-0.16 -0.281,-0.281 -0.391,-0.43 -0.121,-0.121 -0.199,-0.281 -0.32,-0.429 -0.11,-0.16 -0.192,-0.321 -0.27,-0.473 -0.082,-0.156 -0.16,-0.308 -0.23,-0.469 -0.078,-0.199 -0.121,-0.347 -0.199,-0.507 -0.039,-0.192 -0.082,-0.352 -0.121,-0.551 -0.04,-0.153 -0.071,-0.352 -0.071,-0.539 -0.039,-0.16 -0.039,-0.352 -0.039,-0.512 V 146.719 c 0,-0.199 0,-0.391 0.039,-0.547 0,-0.192 0.031,-0.352 0.071,-0.551 0.039,-0.191 0.082,-0.351 0.121,-0.5 0.078,-0.199 0.121,-0.351 0.199,-0.551 0.07,-0.16 0.148,-0.308 0.23,-0.468 0.078,-0.153 0.16,-0.313 0.27,-0.473 0.121,-0.149 0.199,-0.309 0.32,-0.43 0.11,-0.148 0.231,-0.269 0.391,-0.39 0.109,-0.149 0.23,-0.27 0.39,-0.387 0.11,-0.121 0.27,-0.192 0.43,-0.313 0.149,-0.121 0.309,-0.199 0.469,-0.269 0.148,-0.078 0.308,-0.16 0.5,-0.238 0.16,-0.082 0.32,-0.122 0.512,-0.192 0.16,-0.039 0.308,-0.082 0.507,-0.121 0.192,-0.039 0.352,-0.078 0.551,-0.078 0.149,-0.039 0.352,-0.039 0.539,-0.039 z M 786.641,171.84 C 771.09,158.75 751.988,152.23 729.41,152.23 h -80.699 v 235.969 h 73.711 c 48.707,0 73.09,-19.918 73.09,-59.801 0,-15.468 -5.282,-28.046 -15.782,-37.699 -0.32,-0.269 -0.589,-0.578 -0.82,-0.929 -0.238,-0.321 -0.39,-0.629 -0.551,-0.942 -0.121,-0.348 -0.238,-0.707 -0.308,-1.058 -0.082,-0.348 -0.121,-0.7 -0.121,-1.051 0,-0.391 0,-0.739 0.082,-1.098 0.078,-0.351 0.148,-0.699 0.308,-1.051 0.121,-0.308 0.309,-0.66 0.508,-0.941 0.192,-0.309 0.434,-0.578 0.66,-0.859 0.242,-0.27 0.551,-0.5 0.821,-0.7 20.742,-14.218 31.101,-32.808 31.101,-55.781 0,-22.461 -8.25,-40.629 -24.769,-54.449 z m -97.582,175.461 v -45.742 c 0,-0.188 0,-0.387 0.043,-0.539 0,-0.2 0.039,-0.36 0.078,-0.551 0,-0.16 0.082,-0.348 0.121,-0.508 0.039,-0.191 0.109,-0.352 0.187,-0.512 0.043,-0.187 0.121,-0.347 0.242,-0.5 0.071,-0.16 0.149,-0.32 0.27,-0.469 0.078,-0.16 0.199,-0.281 0.309,-0.429 0.121,-0.16 0.242,-0.281 0.351,-0.391 0.16,-0.16 0.281,-0.281 0.43,-0.39 0.121,-0.122 0.281,-0.2 0.43,-0.321 0.16,-0.07 0.32,-0.187 0.468,-0.269 0.16,-0.078 0.313,-0.16 0.473,-0.231 0.16,-0.078 0.348,-0.121 0.508,-0.199 0.191,-0.039 0.351,-0.078 0.551,-0.121 0.152,-0.039 0.351,-0.078 0.5,-0.078 0.199,-0.031 0.39,-0.031 0.55,-0.031 h 25.86 c 22.269,0 33.398,9.492 33.398,28.39 0,18.949 -11.129,28.442 -33.398,28.442 h -25.86 c -0.16,0 -0.351,-0.043 -0.55,-0.043 -0.149,0 -0.348,-0.039 -0.5,-0.079 -0.2,-0.031 -0.36,-0.07 -0.551,-0.109 -0.16,-0.082 -0.348,-0.121 -0.508,-0.199 -0.16,-0.082 -0.313,-0.152 -0.473,-0.231 -0.148,-0.082 -0.308,-0.203 -0.468,-0.281 -0.149,-0.109 -0.309,-0.23 -0.43,-0.308 -0.149,-0.122 -0.27,-0.274 -0.43,-0.391 -0.109,-0.121 -0.23,-0.27 -0.351,-0.391 -0.11,-0.16 -0.231,-0.269 -0.309,-0.429 -0.121,-0.161 -0.199,-0.313 -0.27,-0.469 -0.121,-0.152 -0.199,-0.313 -0.242,-0.512 -0.078,-0.148 -0.148,-0.308 -0.187,-0.5 -0.039,-0.16 -0.121,-0.359 -0.121,-0.512 -0.039,-0.199 -0.078,-0.347 -0.078,-0.546 -0.043,-0.192 -0.043,-0.352 -0.043,-0.551 z m 11.062,-40.231 h 20.309 c 9.449,0 15.82,1.91 19.101,5.7 2.149,2.46 3.239,6.371 3.239,11.64 0,11.61 -7.461,17.391 -22.34,17.391 h -20.309 z m -11.062,-50.269 v -63.68 c 0,-0.191 0,-0.351 0.043,-0.543 0,-0.156 0.039,-0.348 0.078,-0.547 0,-0.152 0.082,-0.351 0.121,-0.511 0.039,-0.192 0.109,-0.348 0.187,-0.5 0.043,-0.161 0.121,-0.36 0.242,-0.508 0.071,-0.16 0.149,-0.313 0.27,-0.473 0.078,-0.117 0.199,-0.269 0.309,-0.43 0.121,-0.121 0.242,-0.269 0.351,-0.39 0.16,-0.117 0.281,-0.239 0.43,-0.348 0.121,-0.121 0.281,-0.242 0.43,-0.351 0.16,-0.079 0.32,-0.2 0.468,-0.282 0.16,-0.078 0.313,-0.148 0.473,-0.226 0.16,-0.043 0.348,-0.121 0.508,-0.16 0.191,-0.082 0.351,-0.122 0.551,-0.153 0.152,-0.039 0.351,-0.039 0.5,-0.078 0.199,0 0.39,0 0.55,0 h 36.481 c 12,0 21.449,3.359 28.398,10.078 6.879,6.68 10.281,15.621 10.281,26.91 0,11.602 -3.402,20.743 -10.242,27.5 -6.91,6.801 -16.398,10.192 -28.437,10.192 H 694.57 c -0.16,0 -0.351,0 -0.55,0 -0.149,-0.031 -0.348,-0.071 -0.5,-0.071 -0.2,-0.039 -0.36,-0.082 -0.551,-0.16 -0.16,-0.039 -0.348,-0.121 -0.508,-0.16 -0.16,-0.07 -0.313,-0.148 -0.473,-0.23 -0.148,-0.121 -0.308,-0.2 -0.468,-0.309 -0.149,-0.082 -0.309,-0.199 -0.43,-0.32 -0.149,-0.11 -0.27,-0.231 -0.43,-0.352 -0.109,-0.109 -0.23,-0.269 -0.351,-0.39 -0.11,-0.149 -0.231,-0.309 -0.309,-0.469 -0.121,-0.11 -0.199,-0.27 -0.27,-0.461 -0.121,-0.16 -0.199,-0.32 -0.242,-0.469 -0.078,-0.16 -0.148,-0.359 -0.187,-0.512 -0.039,-0.199 -0.121,-0.347 -0.121,-0.546 -0.039,-0.153 -0.078,-0.352 -0.078,-0.512 -0.043,-0.192 -0.043,-0.391 -0.043,-0.539 z m 11.062,-58.172 h 30.93 c 18.437,0 27.621,8.672 27.621,25.98 0,17.77 -9.184,26.641 -27.621,26.641 h -30.93 z" /><path
         id="path32"
         style="fill:#ffffff;fill-opacity:1;fill-rule:evenodd;stroke:none"
         d="m 876.949,176.02 c 26.02,-26.098 57.539,-39.141 94.5,-39.141 36.831,0 68.241,13.043 94.251,39.141 25.94,26.05 38.95,57.5 38.95,94.371 0,36.839 -13.01,68.238 -39.03,94.218 -26.01,25.981 -57.5,38.942 -94.491,38.942 -36.828,0 -68.238,-12.961 -94.219,-38.942 -25.969,-25.98 -38.98,-57.379 -38.98,-94.218 0,-36.871 13.011,-68.36 39.019,-94.371 z m 180.901,7.769 c -23.83,-23.91 -52.62,-35.859 -86.401,-35.859 -33.91,0 -62.82,11.949 -86.679,35.859 -23.872,23.91 -35.79,52.77 -35.79,86.602 0,33.789 11.918,62.578 35.75,86.41 23.79,23.82 52.61,35.699 86.399,35.699 33.951,0 62.821,-11.879 86.681,-35.699 23.87,-23.832 35.78,-52.621 35.78,-86.41 0,-33.832 -11.91,-62.692 -35.74,-86.602 z m -29.41,145.981 c -15.78,16.48 -34.889,24.718 -57.311,24.718 -22.578,0 -41.68,-8.238 -57.258,-24.718 -15.473,-16.329 -23.211,-36.098 -23.211,-59.379 0,-23.551 7.738,-43.442 23.25,-59.653 15.578,-16.328 34.762,-24.449 57.539,-24.449 22.5,0 41.561,8.121 57.141,24.449 15.55,16.25 23.32,36.141 23.32,59.653 0,23.199 -7.81,43.007 -23.47,59.379 z m -106.561,-7.622 c 13.43,14.223 29.84,21.293 49.25,21.293 19.301,0 35.711,-7.113 49.301,-21.293 13.63,-14.257 20.43,-31.488 20.43,-51.757 0,-20.551 -6.76,-37.891 -20.27,-52.032 -13.4,-14.019 -29.77,-21.019 -49.141,-21.019 -19.609,0 -36.14,7 -49.539,21.019 -13.469,14.102 -20.191,31.442 -20.191,52.032 0,20.308 6.722,37.578 20.16,51.757 z" /><path
         id="path34"
         style="fill:#ffffff;fill-opacity:1;fill-rule:evenodd;stroke:none"
         d="m 1135.94,399.262 c -0.2,0 -0.39,0 -0.55,-0.043 -0.19,0 -0.35,-0.039 -0.55,-0.078 -0.19,-0.039 -0.35,-0.082 -0.54,-0.121 -0.16,-0.04 -0.32,-0.11 -0.51,-0.192 -0.16,-0.078 -0.31,-0.117 -0.47,-0.238 -0.16,-0.07 -0.31,-0.149 -0.47,-0.27 -0.15,-0.082 -0.31,-0.199 -0.43,-0.308 -0.15,-0.121 -0.27,-0.242 -0.39,-0.352 -0.15,-0.16 -0.27,-0.281 -0.39,-0.43 -0.12,-0.121 -0.19,-0.281 -0.31,-0.429 -0.12,-0.16 -0.2,-0.321 -0.28,-0.473 -0.07,-0.156 -0.15,-0.308 -0.23,-0.469 -0.08,-0.199 -0.12,-0.347 -0.2,-0.507 -0.03,-0.192 -0.07,-0.352 -0.11,-0.551 -0.04,-0.153 -0.08,-0.352 -0.08,-0.539 -0.04,-0.16 -0.04,-0.352 -0.04,-0.512 V 146.719 c 0,-0.199 0,-0.391 0.04,-0.547 0,-0.192 0.04,-0.352 0.08,-0.551 0.04,-0.191 0.08,-0.351 0.11,-0.5 0.08,-0.199 0.12,-0.351 0.2,-0.551 0.08,-0.16 0.16,-0.308 0.23,-0.468 0.08,-0.153 0.16,-0.313 0.28,-0.473 0.12,-0.149 0.19,-0.309 0.31,-0.43 0.12,-0.148 0.24,-0.269 0.39,-0.39 0.12,-0.149 0.24,-0.27 0.39,-0.387 0.12,-0.121 0.28,-0.192 0.43,-0.313 0.16,-0.121 0.31,-0.199 0.47,-0.269 0.16,-0.078 0.31,-0.16 0.47,-0.238 0.19,-0.082 0.35,-0.122 0.51,-0.192 0.19,-0.039 0.35,-0.082 0.54,-0.121 0.2,-0.039 0.36,-0.078 0.55,-0.078 0.16,-0.039 0.35,-0.039 0.55,-0.039 h 150.86 c 0.15,0 0.35,0 0.54,0.039 0.16,0 0.36,0.039 0.51,0.078 0.2,0.039 0.39,0.082 0.55,0.121 0.15,0.07 0.35,0.11 0.51,0.192 0.15,0.078 0.31,0.16 0.5,0.238 0.16,0.07 0.32,0.148 0.43,0.269 0.16,0.121 0.32,0.192 0.47,0.313 0.12,0.117 0.28,0.238 0.39,0.387 0.12,0.121 0.24,0.242 0.35,0.39 0.12,0.121 0.24,0.281 0.32,0.43 0.11,0.16 0.19,0.32 0.31,0.473 0.08,0.16 0.16,0.308 0.23,0.468 0.04,0.2 0.12,0.352 0.16,0.551 0.08,0.149 0.12,0.309 0.16,0.5 0.04,0.199 0.04,0.359 0.07,0.551 0,0.156 0,0.348 0,0.547 v 46.402 c 0,0.199 0,0.359 0,0.551 -0.03,0.156 -0.03,0.348 -0.07,0.547 -0.04,0.16 -0.08,0.351 -0.16,0.511 -0.04,0.192 -0.12,0.348 -0.16,0.5 -0.07,0.161 -0.15,0.36 -0.23,0.508 -0.12,0.16 -0.2,0.313 -0.31,0.473 -0.08,0.117 -0.2,0.269 -0.32,0.43 -0.11,0.121 -0.23,0.269 -0.35,0.39 -0.11,0.117 -0.27,0.239 -0.39,0.348 -0.15,0.121 -0.31,0.242 -0.47,0.351 -0.11,0.079 -0.27,0.2 -0.43,0.282 -0.19,0.078 -0.35,0.148 -0.5,0.226 -0.16,0.043 -0.36,0.121 -0.51,0.16 -0.16,0.082 -0.35,0.122 -0.55,0.153 -0.15,0.039 -0.35,0.039 -0.51,0.078 -0.19,0 -0.39,0 -0.54,0 h -93.95 V 393.75 c 0,0.16 0,0.352 -0.04,0.512 0,0.187 -0.04,0.386 -0.08,0.539 -0.03,0.199 -0.07,0.359 -0.11,0.551 -0.08,0.16 -0.12,0.308 -0.2,0.507 -0.08,0.161 -0.15,0.313 -0.23,0.469 -0.08,0.152 -0.16,0.313 -0.28,0.473 -0.11,0.148 -0.19,0.308 -0.31,0.429 -0.12,0.149 -0.23,0.27 -0.39,0.43 -0.12,0.11 -0.23,0.231 -0.39,0.352 -0.16,0.109 -0.27,0.226 -0.43,0.308 -0.16,0.121 -0.31,0.2 -0.47,0.27 -0.15,0.121 -0.31,0.16 -0.51,0.238 -0.15,0.082 -0.31,0.152 -0.5,0.192 -0.16,0.039 -0.36,0.082 -0.51,0.121 -0.2,0.039 -0.35,0.078 -0.55,0.078 -0.15,0.043 -0.35,0.043 -0.55,0.043 z m 5.51,-11.063 V 152.23 h 139.8 v 35.391 h -93.95 c -0.15,0 -0.35,0 -0.54,0 -0.16,0.039 -0.35,0.039 -0.51,0.078 -0.2,0.031 -0.35,0.071 -0.55,0.153 -0.15,0.039 -0.35,0.117 -0.5,0.16 -0.16,0.078 -0.32,0.148 -0.47,0.226 -0.16,0.082 -0.32,0.203 -0.47,0.282 -0.16,0.109 -0.31,0.23 -0.43,0.351 -0.16,0.109 -0.28,0.231 -0.43,0.348 -0.12,0.121 -0.24,0.269 -0.35,0.39 -0.12,0.161 -0.24,0.313 -0.32,0.43 -0.11,0.16 -0.19,0.313 -0.27,0.473 -0.12,0.148 -0.19,0.347 -0.23,0.508 -0.08,0.152 -0.16,0.308 -0.2,0.5 -0.04,0.16 -0.12,0.359 -0.12,0.511 -0.03,0.199 -0.07,0.391 -0.07,0.547 -0.04,0.192 -0.04,0.352 -0.04,0.543 v 195.078 z" /><path
         id="path36"
         style="fill:#ffffff;fill-opacity:1;fill-rule:evenodd;stroke:none"
         d="m 1315.31,399.262 c -0.19,0 -0.35,0 -0.54,-0.043 -0.2,0 -0.36,-0.039 -0.55,-0.078 -0.16,-0.039 -0.35,-0.082 -0.51,-0.121 -0.19,-0.04 -0.35,-0.11 -0.51,-0.192 -0.19,-0.078 -0.35,-0.117 -0.5,-0.238 -0.16,-0.07 -0.32,-0.149 -0.47,-0.27 -0.16,-0.082 -0.28,-0.199 -0.43,-0.308 -0.12,-0.121 -0.28,-0.242 -0.39,-0.352 -0.12,-0.16 -0.28,-0.281 -0.36,-0.43 -0.11,-0.121 -0.23,-0.281 -0.35,-0.429 -0.08,-0.16 -0.19,-0.321 -0.27,-0.473 -0.08,-0.156 -0.16,-0.308 -0.23,-0.469 -0.08,-0.199 -0.12,-0.347 -0.2,-0.507 -0.04,-0.192 -0.08,-0.352 -0.12,-0.551 -0.04,-0.153 -0.04,-0.352 -0.08,-0.539 0,-0.16 -0.03,-0.352 -0.03,-0.512 V 146.719 c 0,-0.199 0.03,-0.391 0.03,-0.547 0.04,-0.192 0.04,-0.352 0.08,-0.551 0.04,-0.191 0.08,-0.351 0.12,-0.5 0.08,-0.199 0.12,-0.351 0.2,-0.551 0.07,-0.16 0.15,-0.308 0.23,-0.468 0.08,-0.153 0.19,-0.313 0.27,-0.473 0.12,-0.149 0.24,-0.309 0.35,-0.43 0.08,-0.148 0.24,-0.269 0.36,-0.39 0.11,-0.149 0.27,-0.27 0.39,-0.387 0.15,-0.121 0.27,-0.192 0.43,-0.313 0.15,-0.121 0.31,-0.199 0.47,-0.269 0.15,-0.078 0.31,-0.16 0.5,-0.238 0.16,-0.082 0.32,-0.122 0.51,-0.192 0.16,-0.039 0.35,-0.082 0.51,-0.121 0.19,-0.039 0.35,-0.078 0.55,-0.078 0.19,-0.039 0.35,-0.039 0.54,-0.039 h 100.47 c 37.31,0 68.95,12.269 94.88,36.758 26.41,24.879 39.61,55.699 39.61,92.461 0,36.488 -13.2,67.148 -39.65,92.07 -26.05,24.527 -57.77,36.801 -95.19,36.801 z m 5.51,-11.063 V 152.23 h 94.96 c 34.38,0 63.48,11.25 87.31,33.711 24.1,22.731 36.13,50.899 36.13,84.45 0,33.281 -12.03,61.289 -36.17,84.019 -23.95,22.539 -53.13,33.789 -87.62,33.789 z m 40.35,-40.898 v -154.18 c 0,-0.191 0,-0.351 0.04,-0.543 0,-0.156 0.04,-0.348 0.08,-0.547 0.04,-0.152 0.08,-0.351 0.12,-0.511 0.04,-0.192 0.11,-0.348 0.19,-0.5 0.08,-0.161 0.16,-0.36 0.24,-0.508 0.07,-0.16 0.15,-0.313 0.27,-0.473 0.12,-0.117 0.19,-0.269 0.31,-0.43 0.12,-0.121 0.28,-0.269 0.39,-0.39 0.12,-0.117 0.24,-0.239 0.39,-0.348 0.16,-0.121 0.28,-0.242 0.43,-0.351 0.16,-0.079 0.32,-0.2 0.47,-0.282 0.16,-0.078 0.31,-0.148 0.47,-0.226 0.2,-0.043 0.35,-0.121 0.55,-0.16 0.15,-0.082 0.31,-0.122 0.5,-0.153 0.2,-0.039 0.36,-0.039 0.51,-0.078 0.2,0 0.39,0 0.59,0 h 49.06 c 23.05,0 42.38,7.848 58.09,23.551 15.78,15.859 23.71,35.59 23.71,59.219 0,23.75 -7.93,43.48 -23.79,59.179 -15.63,15.508 -35.08,23.282 -58.36,23.282 h -48.71 c -0.2,0 -0.39,-0.043 -0.59,-0.043 -0.15,0 -0.31,-0.039 -0.51,-0.079 -0.19,-0.031 -0.35,-0.07 -0.5,-0.109 -0.2,-0.082 -0.35,-0.121 -0.55,-0.199 -0.16,-0.082 -0.31,-0.152 -0.47,-0.231 -0.15,-0.082 -0.31,-0.203 -0.47,-0.281 -0.15,-0.109 -0.27,-0.23 -0.43,-0.308 -0.15,-0.122 -0.27,-0.274 -0.39,-0.391 -0.11,-0.121 -0.27,-0.27 -0.39,-0.391 -0.12,-0.16 -0.19,-0.269 -0.31,-0.429 -0.12,-0.161 -0.2,-0.313 -0.27,-0.469 -0.08,-0.152 -0.16,-0.313 -0.24,-0.512 -0.08,-0.148 -0.15,-0.308 -0.19,-0.5 -0.04,-0.16 -0.08,-0.359 -0.12,-0.512 -0.04,-0.199 -0.08,-0.347 -0.08,-0.546 -0.04,-0.192 -0.04,-0.352 -0.04,-0.551 z m 11.06,-148.672 h 43.55 c 20,0 36.72,6.801 50.27,20.351 13.64,13.719 20.47,30.821 20.47,51.411 0,20.66 -6.83,37.769 -20.5,51.328 -13.52,13.359 -30.36,20.082 -50.59,20.082 h -43.2 z" /><path
         id="path38"
         style="fill:#ffffff;fill-opacity:1;fill-rule:nonzero;stroke:none"
         d="m 540.898,1220.43 c -74.609,-104.84 -87.699,-176.41 -37.308,-219.73 70.551,-60.501 308.48,50.39 402.191,91.72 -40.312,-50.39 -72.582,-93.748 -84.652,-116.951 -26.207,-47.348 -27.219,-72.578 -3.039,-95.739 18.16,-20.16 33.281,-12.109 17.14,7.071 l -7.07,10.078 c 51.449,115.891 171.371,234.841 267.15,301.401 15.12,10.08 50.39,24.18 32.27,46.37 -5.04,6.01 13.08,9.06 40.31,7.03 30.23,-3.01 43.36,-7.03 57.46,-16.13 10.08,-5.04 12.11,-6.06 15.12,-2 13.08,21.18 -22.19,46.37 -74.61,51.41 -47.34,5.04 -241.911,0 -241.911,-78.63 0,-16.13 7.071,-31.25 17.141,-34.26 6.058,-2.03 6.058,-3.05 -5.039,-9.1 -115.93,-60.47 -342.731,-146.17 -421.36,-136.06 1.989,93.71 169.329,288.29 338.707,411.25 142.114,102.82 320.552,173.4 434.452,162.31 -32.26,-43.36 -102.81,-93.75 -188.51,-142.15 -30.24,-17.11 -58.48,-34.26 -61.49,-39.3 -11.09,-13.12 2.03,-34.25 10.08,-44.33 7.07,-7.07 9.06,-7.07 12.11,-4.07 1.99,3.05 24.18,16.14 48.36,29.26 98.79,51.41 176.4,106.84 203.63,146.14 19.18,29.25 19.18,60.5 1.02,88.71 -23.21,33.28 -83.67,37.3 -180.43,12.11 -96.8,-25.2 -213.71,-81.64 -310.472,-151.22 -105.859,-76.6 -214.726,-182.46 -281.25,-275.19 z m 552.382,26.21 c -37.26,-23.16 -101.8,-55.43 -141.089,-73.59 -4.07,56.44 105.819,67.54 141.089,73.59 z" /><path
         id="path40"
         style="fill:#ffffff;fill-opacity:1;fill-rule:nonzero;stroke:none"
         d="m 263.59,1536.41 c 83.051,83 178.398,147.3 286.101,192.85 C 661.172,1776.41 777.93,1800 900,1800 c 122.07,0 238.83,-23.59 350.31,-70.74 107.7,-45.55 203.05,-109.85 286.1,-192.85 83,-83.05 147.3,-178.4 192.85,-286.1 C 1776.41,1138.83 1800,1022.07 1800,900 1800,777.93 1776.41,661.172 1729.26,549.691 1692.15,461.949 1642.62,382.379 1580.62,311.02 l 0.86,41.25 c 50.79,62.929 92.11,132.109 123.99,207.46 45.82,108.282 68.71,221.68 68.71,340.27 0,118.55 -22.89,231.99 -68.71,340.27 -44.22,104.57 -106.68,197.19 -187.35,277.85 -56.71,56.72 -119.37,104.46 -187.92,143.17 l -5.2,5.55 -6.37,5.15 -12.97,7.93 -5.78,2.78 -14.37,5.07 -4.42,1.21 -6.99,1.37 c -11.13,5.24 -22.42,10.31 -33.83,15.12 -108.28,45.82 -221.72,68.71 -340.27,68.71 -118.59,0 -231.988,-22.89 -340.27,-68.71 C 455.16,1661.25 362.539,1598.79 281.879,1518.12 201.211,1437.46 138.75,1344.84 94.5313,1240.27 48.7109,1131.99 25.8203,1018.55 25.8203,900 25.8203,781.41 48.7109,668.012 94.5313,559.73 125.738,485.898 166.09,418.012 215.469,356.051 l 6.133,-33.43 1.058,-12 -0.082,-3.242 C 159.102,379.691 108.48,460.43 70.7383,549.691 23.5898,661.172 0,777.93 0,900 c 0,122.07 23.5898,238.83 70.7383,350.31 45.5507,107.7 109.8127,203.05 192.8517,286.1 z M 1250.31,70.7383 C 1138.83,23.5898 1022.07,0 900,0 777.93,0 661.172,23.5898 549.691,70.7383 522.109,82.3789 495.352,95.2695 469.41,109.379 l 55.668,0.66 C 536.48,104.648 548.051,99.4492 559.73,94.5313 668.012,48.7109 781.41,25.8203 900,25.8203 c 118.55,0 231.99,22.8906 340.27,68.711 12.03,5.0781 23.87,10.3907 35.59,15.9807 h 56.76 c -26.57,-14.5706 -54.03,-27.8128 -82.31,-39.7737 z" /></g></g></svg>