<?xml version="1.0" encoding="UTF-8" standalone="no"?>
<svg
   xmlns:dc="http://purl.org/dc/elements/1.1/"
   xmlns:cc="http://creativecommons.org/ns#"
   xmlns:rdf="http://www.w3.org/1999/02/22-rdf-syntax-ns#"
   xmlns:svg="http://www.w3.org/2000/svg"
   xmlns="http://www.w3.org/2000/svg"
   viewBox="0 0 114.66667 106.66667"
   height="106.66667"
   width="114.66667"
   xml:space="preserve"
   id="svg2"
   version="1.1"><metadata
     id="metadata8"><rdf:RDF><cc:Work
         rdf:about=""><dc:format>image/svg+xml</dc:format><dc:type
           rdf:resource="http://purl.org/dc/dcmitype/StillImage" /></cc:Work></rdf:RDF></metadata><defs
     id="defs6"><clipPath
       id="clipPath20"
       clipPathUnits="userSpaceOnUse"><path
         id="path18"
         d="M 67.5781,356.289 C -7.19141,251.211 -20.3086,179.488 30.1992,136.051 100.941,75.4297 339.34,186.559 433.32,228.012 392.891,177.461 360.59,134.02 348.441,110.781 322.191,63.3203 321.172,38.0508 345.43,14.8008 363.59,-5.39063 378.75,2.69922 362.578,21.8789 l -7.066,10.1094 C 407.031,148.16 527.27,267.379 623.238,334.059 c 15.16,10.121 50.551,24.261 32.352,46.492 -5.039,6.051 13.121,9.097 40.43,7.07 30.269,-3.012 43.429,-7.07 57.57,-16.172 10.082,-5.039 12.109,-6.058 15.16,-2 13.129,21.211 -22.23,46.449 -74.77,51.531 -47.5,5.04 -242.5,0 -242.5,-78.832 0,-16.168 7.071,-31.328 17.192,-34.339 6.058,-2.028 6.058,-3.039 -5.043,-9.098 C 347.422,238.09 120.121,152.23 41.3281,162.301 43.3203,256.289 211.051,451.289 380.781,574.531 523.238,677.578 702.07,748.32 816.211,737.191 783.91,693.75 713.16,643.238 627.301,594.73 c -30.313,-17.152 -58.59,-34.339 -61.641,-39.378 -11.09,-13.161 2.039,-34.372 10.121,-44.454 7.071,-7.07 9.059,-7.07 12.11,-4.058 2.031,3.039 24.257,16.172 48.519,29.289 98.981,51.531 176.789,107.109 204.059,146.531 19.222,29.289 19.222,60.578 1.011,88.899 -23.242,33.32 -83.859,37.39 -180.859,12.113 C 563.629,758.398 446.449,701.84 349.449,632.109 243.359,555.352 134.262,449.262 67.5781,356.289 Z M 621.25,382.578 c -37.379,-23.238 -102.07,-55.59 -141.449,-73.75 -4.063,56.563 106.058,67.692 141.449,73.75 z" /></clipPath><linearGradient
       id="linearGradient26"
       spreadMethod="pad"
       gradientTransform="matrix(7.5,0,0,-7.5,-3.42e-5,802.771)"
       gradientUnits="userSpaceOnUse"
       y2="102.351"
       x2="177.272"
       y1="102.351"
       x1="-63.271801"><stop
         id="stop22"
         offset="0"
         style="stop-opacity:1;stop-color:#7b4397" /><stop
         id="stop24"
         offset="1"
         style="stop-opacity:1;stop-color:#dc2430" /></linearGradient></defs><g
     transform="matrix(1.3333333,0,0,-1.3333333,0,106.66667)"
     id="g10"><g
       transform="scale(0.1)"
       id="g12"><g
         id="g14"><g
           clip-path="url(#clipPath20)"
           id="g16"><path
             id="path28"
             style="fill:url(#linearGradient26);fill-opacity:1;fill-rule:nonzero;stroke:none"
             d="M 67.5781,356.289 C -7.19141,251.211 -20.3086,179.488 30.1992,136.051 100.941,75.4297 339.34,186.559 433.32,228.012 392.891,177.461 360.59,134.02 348.441,110.781 322.191,63.3203 321.172,38.0508 345.43,14.8008 363.59,-5.39063 378.75,2.69922 362.578,21.8789 l -7.066,10.1094 C 407.031,148.16 527.27,267.379 623.238,334.059 c 15.16,10.121 50.551,24.261 32.352,46.492 -5.039,6.051 13.121,9.097 40.43,7.07 30.269,-3.012 43.429,-7.07 57.57,-16.172 10.082,-5.039 12.109,-6.058 15.16,-2 13.129,21.211 -22.23,46.449 -74.77,51.531 -47.5,5.04 -242.5,0 -242.5,-78.832 0,-16.168 7.071,-31.328 17.192,-34.339 6.058,-2.028 6.058,-3.039 -5.043,-9.098 C 347.422,238.09 120.121,152.23 41.3281,162.301 43.3203,256.289 211.051,451.289 380.781,574.531 523.238,677.578 702.07,748.32 816.211,737.191 783.91,693.75 713.16,643.238 627.301,594.73 c -30.313,-17.152 -58.59,-34.339 -61.641,-39.378 -11.09,-13.161 2.039,-34.372 10.121,-44.454 7.071,-7.07 9.059,-7.07 12.11,-4.058 2.031,3.039 24.257,16.172 48.519,29.289 98.981,51.531 176.789,107.109 204.059,146.531 19.222,29.289 19.222,60.578 1.011,88.899 -23.242,33.32 -83.859,37.39 -180.859,12.113 C 563.629,758.398 446.449,701.84 349.449,632.109 243.359,555.352 134.262,449.262 67.5781,356.289 Z M 621.25,382.578 c -37.379,-23.238 -102.07,-55.59 -141.449,-73.75 -4.063,56.563 106.058,67.692 141.449,73.75 z" /></g></g></g></g></svg>